# xmcd
#
# Track frame offsets: 
#        150
#        12620
#        31587
#        54355
#        71206
#        85342
#        108758
#        120161
#        143396
#        163423
#        186203
#        208756
#        232140
#        246823
#        259972
#
# Disc length: 3720 seconds
#
# Revision: 0
# Processed by: cddbd v1.5.2PL0 Copyright (c) Steve Scherf et al.
# Submitted via: ExactAudioCopy v0.99pb4
#
DISCID=ce0e860f
DTITLE=Carla Thomas - Live At The Bohemian Caverns
DYEAR=1967
DGENRE=Soul
TTITLE0=Introduction By Al Bell
TTITLE1=You're Gonna Hear From Me
TTITLE2=Medley - Zip-A-Dee-Doo-Dah - A Lovely Way To Spend An Evening 
TTITLE2=It's A Lovely Day Today -  On A Clear Day (You Can See Forev
TTITLE2=er)
TTITLE3=Mas Que Nada
TTITLE4=Gee Whiz (Look At His Eyes)
TTITLE5=Evenin'
TTITLE6=A Lot Of Livin' To Do
TTITLE7=B-A-B-Y
TTITLE8=Many, Many Thanks
TTITLE9=Never Be True
TTITLE10=Rufus Thomas - Rufus Dialogue #1
TTITLE11=Rufus Thomas - Fine And Mellow
TTITLE12=Rufus Thomas - Did You Ever Love A Woman
TTITLE13=Rufus Thomas - Rufus Dialogue #2
TTITLE14=Rufus Thomas - The Dog
EXTD=
EXTT0=
EXTT1=
EXTT2=
EXTT3=
EXTT4=
EXTT5=
EXTT6=
EXTT7=
EXTT8=
EXTT9=
EXTT10=
EXTT11=
EXTT12=
EXTT13=
EXTT14=
PLAYORDER=
